<?xml version="1.0" encoding="UTF-8" standalone="no"?>
<!-- Created with Inkscape (http://www.inkscape.org/) -->

<svg
   id="svg1307"
   width="90"
   height="90"
   version="1.0"
   sodipodi:docname="logo.svg"
   inkscape:version="1.1.2 (0a00cf5339, 2022-02-04)"
   inkscape:export-filename="/home/vittoriopalmisano/Downloads/logo.png"
   inkscape:export-xdpi="150"
   inkscape:export-ydpi="150"
   xmlns:inkscape="http://www.inkscape.org/namespaces/inkscape"
   xmlns:sodipodi="http://sodipodi.sourceforge.net/DTD/sodipodi-0.dtd"
   xmlns:xlink="http://www.w3.org/1999/xlink"
   xmlns="http://www.w3.org/2000/svg"
   xmlns:svg="http://www.w3.org/2000/svg"
   xmlns:rdf="http://www.w3.org/1999/02/22-rdf-syntax-ns#"
   xmlns:cc="http://creativecommons.org/ns#"
   xmlns:dc="http://purl.org/dc/elements/1.1/">
  <title
     id="title852">webrtcperf</title>
  <defs
     id="defs12">
    <linearGradient
       inkscape:collect="always"
       id="linearGradient39599">
      <stop
         style="stop-color:#ffffff;stop-opacity:1"
         offset="0"
         id="stop40125" />
      <stop
         style="stop-color:#20619f;stop-opacity:1"
         offset="1"
         id="stop40127" />
    </linearGradient>
    <radialGradient
       inkscape:collect="always"
       xlink:href="#linearGradient39599"
       id="radialGradient40123"
       cx="156.97173"
       cy="73.326286"
       fx="156.97173"
       fy="73.326286"
       r="40.494236"
       gradientTransform="matrix(1.6492324,0,0,1.7594402,-212.03312,-69.793938)"
       gradientUnits="userSpaceOnUse" />
  </defs>
  <sodipodi:namedview
     pagecolor="#ffffff"
     bordercolor="#666666"
     borderopacity="1"
     objecttolerance="10"
     gridtolerance="10"
     guidetolerance="10"
     inkscape:pageopacity="0"
     inkscape:pageshadow="2"
     inkscape:window-width="3360"
     inkscape:window-height="1379"
     id="namedview10"
     showgrid="false"
     inkscape:zoom="5.1505487"
     inkscape:cx="63.488381"
     inkscape:cy="49.994673"
     inkscape:window-x="0"
     inkscape:window-y="0"
     inkscape:window-maximized="1"
     inkscape:current-layer="svg1307"
     inkscape:pagecheckerboard="true"
     width="90px" />
  <metadata
     id="metadata1312">
    <rdf:RDF>
      <cc:Work
         rdf:about="">
        <dc:format>image/svg+xml</dc:format>
        <dc:type
           rdf:resource="http://purl.org/dc/dcmitype/StillImage" />
        <dc:title>webrtcperf</dc:title>
        <dc:creator>
          <cc:Agent>
            <dc:title>Vittorio Palmisano</dc:title>
          </cc:Agent>
        </dc:creator>
      </cc:Work>
    </rdf:RDF>
  </metadata>
  <path
     id="path38838"
     d="m 29.850105,4.5687797 c 1.37642,1.216802 2.75284,2.433603 4.12926,3.650404 0.009,7.5135123 -0.15657,15.0259623 -0.14579,22.5394863 -10.04065,11.187283 -21.0046,21.917155 -28.0988305,35.33841 -3.59103,7.302779 1.05554,17.210699 9.1593105,18.720889 6.11703,1.03652 12.36676,0.40506 18.54941,0.57936 12.71399,-0.0377 25.43116,0.0767 38.1431,-0.0597 6.14036,0.0287 11.93028,-4.17239 13.43687,-10.169 1.90921,-6.45262 -2.40507,-12.309995 -5.47922,-17.570968 -5.98242,-9.676809 -13.40674,-18.339875 -20.92416,-26.839039 -0.009,-7.513514 0.15503,-15.025975 0.14579,-22.5394863 1.37642,-1.216802 2.75284,-2.433603 4.12926,-3.650404 -11.0144,0 -22.03358,0 -33.045,0 z"
     style="fill:url(#radialGradient40123);fill-opacity:1;fill-rule:evenodd;stroke:none;stroke-width:9.178;stroke-linecap:round;stroke-linejoin:round;stroke-miterlimit:4;stroke-dasharray:none;stroke-opacity:1"
     inkscape:connector-curvature="0" />
  <path
     id="rect44106"
     style="fill:#ffffff;fill-opacity:0.682231;stroke-width:0;stroke-linecap:round;stroke-linejoin:round;stroke-miterlimit:2.7"
     d="m 36.165675,6.6817888 c 0,0 18.601878,0.045769 21.262172,0.045769 l 0.05442,9.0021332 c -0.506881,0.2198 0.01262,-1.15287 -1.674625,-0.955162 -1.687244,0.197707 -2.552118,0.852846 -4.039575,1.120963 -1.487457,0.268117 -2.651714,-1.151976 -4.420177,-1.131817 -1.768463,0.02016 -2.976878,1.216447 -4.420176,0.565908 -1.443298,-0.650539 -2.233026,-0.812145 -3.942042,-0.699592 -1.709016,0.112554 -2.882855,1.319583 -2.882855,1.319583 z"
     sodipodi:nodetypes="ccczzzzzcc" />
  <path
     id="path29274"
     d="m 29.851971,4.5891254 4.12926,3.6504039 c 0.009,7.5135117 -0.156567,15.0259617 -0.14579,22.5394857 C 23.794789,41.966298 12.830835,52.69617 5.7366101,66.117426 c -3.5910356,7.302777 1.0555374,17.2107 9.1593119,18.720886 6.11703,1.036527 12.366761,0.405065 18.549405,0.579361 12.713992,-0.0377 25.431162,0.07674 38.143097,-0.05966 6.140364,0.02869 11.930285,-4.172392 13.436874,-10.168994 1.909213,-6.452629 -2.405076,-12.31 -5.479222,-17.570973 -5.982417,-9.676809 -13.406739,-18.339874 -20.924155,-26.839039 -0.0076,-6.188326 0.102489,-12.375939 0.136391,-18.564013 0.0073,-1.325133 0.01103,-2.6502866 0.0094,-3.9754733 L 62.896968,4.5891168 H 29.851971 Z"
     style="fill:none;fill-rule:evenodd;stroke:#20619f;stroke-width:6;stroke-linecap:round;stroke-linejoin:round;stroke-miterlimit:2.7;stroke-dasharray:none;stroke-opacity:1;paint-order:normal"
     inkscape:connector-curvature="0"
     sodipodi:nodetypes="ccccccccccscccc" />
  <g
     transform="matrix(0.17179979,0,0,0.17182554,23.748382,37.208148)"
     id="g4551"
     style="stroke-width:34.9218;stroke-miterlimit:4;stroke-dasharray:none">
    <path
       style="fill:#ff6600;stroke-width:34.9218;stroke-miterlimit:4;stroke-dasharray:none"
       inkscape:connector-curvature="0"
       d="m 142.07658,191.08681 c 1.91505,41.9458 -49.064806,72.30614 -85.041215,50.64091 -37.407927,-18.19318 -40.239996,-76.69112 -4.748473,-98.39697 36.521549,-26.24579 91.117038,2.74144 89.789688,47.75606 z"
       id="path4529" />
    <path
       style="fill:#ffcc00;stroke-width:34.9218;stroke-miterlimit:4;stroke-dasharray:none"
       inkscape:connector-curvature="0"
       d="m 255.9797,110.45857 c 1.91339,41.94426 -49.06528,72.30711 -85.04121,50.64006 -37.4082,-18.19477 -40.23909,-76.69118 -4.74847,-98.399 36.52292,-26.25019 91.11701,2.74468 89.78968,47.75894 z"
       id="path4531" />
    <path
       style="fill:#0089cc;stroke-width:34.9218;stroke-miterlimit:4;stroke-dasharray:none"
       inkscape:connector-curvature="0"
       d="m 115.2005,109.18068 c 1.91338,41.94341 -49.06564,72.30678 -85.040716,50.64005 -37.408275,-18.19562 -40.23951,-76.69078 -4.748148,-98.399 36.521215,-26.25055 91.116774,2.7465 89.788864,47.75895 z"
       id="path4533" />
    <path
       style="fill:#009939;stroke-width:34.9218;stroke-miterlimit:4;stroke-dasharray:none"
       inkscape:connector-curvature="0"
       d="m 230.38575,191.08681 c 1.91486,41.94686 -49.06887,72.30526 -85.04494,50.64091 -37.40799,-18.19403 -40.24042,-76.69072 -4.74815,-98.39697 36.51991,-26.24554 91.12114,2.74158 89.79309,47.75606 z"
       id="path4535" />
    <path
       style="fill:#bf0000;stroke-width:34.9218;stroke-miterlimit:4;stroke-dasharray:none"
       inkscape:connector-curvature="0"
       d="M 185.592,57.984319 C 187.50544,99.929634 136.52466,130.28994 100.54844,108.62523 63.13887,90.43244 60.306105,31.933627 95.799948,10.22826 132.32074,-16.01753 186.91815,12.97091 185.592,57.984319 Z"
       id="path4537" />
    <path
       style="fill:#fc0007;stroke-width:34.9218;stroke-miterlimit:4;stroke-dasharray:none"
       inkscape:connector-curvature="0"
       d="m 140.79867,110.45858 c 19.44346,9.89235 57.35016,-42.08737 39.89978,-54.77109 -23.31165,7.21271 -40.26539,30.327459 -39.89978,54.77109 z"
       id="path4539" />
    <path
       style="fill:#1cd306;stroke-width:34.9218;stroke-miterlimit:4;stroke-dasharray:none"
       inkscape:connector-curvature="0"
       d="m 148.39686,138.97563 c 13.82573,25.59824 48.35463,36.60279 74.39028,23.59498 -14.08239,-25.70474 -48.06194,-36.55972 -74.39028,-23.59498 z"
       id="path4541" />
    <path
       style="fill:#0f7504;stroke-width:34.9218;stroke-miterlimit:4;stroke-dasharray:none"
       inkscape:connector-curvature="0"
       d="m 115.2005,191.08681 c -1.93021,17.25048 15.38025,53.32518 23.29947,20.00023 8.05341,-15.62805 2.09227,-54.98223 -12.84241,-53.06648 -6.78992,9.59437 -10.49381,21.31204 -10.45706,33.06625 z"
       id="path4543" />
    <path
       style="fill:#0c5e87;stroke-width:34.9218;stroke-miterlimit:4;stroke-dasharray:none"
       inkscape:connector-curvature="0"
       d="m 34.806984,162.05683 c 25.713208,11.81384 58.760411,0.80967 72.486306,-23.84829 -25.838054,-11.774 -58.640566,-0.86753 -72.486306,23.84829 z"
       id="path4545" />
    <path
       style="fill:#6b0001;stroke-width:34.9218;stroke-miterlimit:4;stroke-dasharray:none"
       inkscape:connector-curvature="0"
       d="M 70.654563,53.12559 C 64.366422,78.72168 96.417598,118.91808 115.20176,109.1811 115.62562,83.012942 96.200636,58.68673 70.654563,53.12559 Z"
       id="path4547" />
    <path
       style="fill:#ffffff;stroke-width:34.9218;stroke-miterlimit:4;stroke-dasharray:none"
       inkscape:connector-curvature="0"
       d="m 76.030455,183.96061 c -16.374197,3.73381 -26.715467,-11.00909 -23.430342,-26.23189 0.704722,-25.06293 -1.443654,-50.41234 1.134841,-75.28712 8.865148,-14.18413 27.44687,-7.04152 41.436932,-8.78935 28.272504,0 56.545014,0 84.817514,0 19.22995,1.72314 13.56278,23.35847 14.41705,36.60736 -0.6874,21.60736 1.41989,43.49521 -1.13418,64.91522 -8.8651,14.18016 -27.44494,7.03764 -41.43337,8.78578 -15.69052,-1.69407 -28.1742,10.43909 -42.26288,15.65179 -15.095358,7.39994 -30.190713,14.79988 -45.286067,22.19983 3.913501,-12.61721 7.827001,-25.23442 11.740502,-37.85162 z"
       id="path4549" />
  </g>
  <g
     id="g38806"
     transform="matrix(0.36587639,0,0,0.36587639,34.558776,18.600956)">
    <path
       d="M 8.4672032,104.07085 9.6999381,95.89728 H 12.299401 L 9.9857897,108.90353 H 7.3505955 l -1.5185864,-7.6644 -1.5007208,7.6644 H 1.6871613 L -0.63538265,95.89728 H 1.9819458 l 1.223802,8.16464 1.5275193,-8.16464 h 2.2064168 z"
       style="font-weight:bold;font-size:18.2945px;line-height:1.25;font-family:'Roboto Condensed';-inkscape-font-specification:'Roboto Condensed, Bold';letter-spacing:0px;word-spacing:0px;fill:#20619f;stroke-width:0.457363"
       id="path34542" />
    <path
       d="m 17.221408,109.08218 q -1.947364,0 -3.037173,-1.16127 -1.089809,-1.16127 -1.089809,-3.32302 v -0.76823 q 0,-2.28681 1.00048,-3.52848 1.000481,-1.241667 2.867449,-1.241667 1.822304,0 2.742388,1.170207 0.920085,1.16127 0.937951,3.44808 v 1.24167 h -5.029201 q 0.0536,1.07194 0.473441,1.57218 0.419845,0.49131 1.295265,0.49131 1.268467,0 2.117089,-0.86649 l 0.991547,1.52752 q -0.464509,0.64317 -1.348862,1.04515 -0.884353,0.39304 -1.920565,0.39304 z m -1.590049,-5.93142 h 2.527999 v -0.23225 q -0.01787,-0.86649 -0.285851,-1.31313 -0.267986,-0.44664 -0.929018,-0.44664 -0.661032,0 -0.964749,0.47344 -0.294784,0.47344 -0.348381,1.51858 z"
       style="font-weight:bold;font-size:18.2945px;line-height:1.25;font-family:'Roboto Condensed';-inkscape-font-specification:'Roboto Condensed, Bold';letter-spacing:0px;word-spacing:0px;fill:#20619f;stroke-width:0.457363"
       id="path34544" />
    <path
       d="m 29.611285,104.3835 q 0,2.34934 -0.75036,3.52848 -0.75036,1.1702 -2.358275,1.1702 -1.259534,0 -2.018827,-1.13447 l -0.0804,0.95582 H 22.07195 V 95.182651 h 2.528 v 4.841609 q 0.714629,-0.964747 1.884834,-0.964747 1.607915,0 2.358275,1.170207 0.750361,1.16127 0.768226,3.41235 z m -2.527999,-0.63423 q 0,-1.52752 -0.294785,-2.04563 -0.294784,-0.52704 -1.027279,-0.52704 -0.795025,0 -1.161272,0.72356 v 4.4039 q 0.339449,0.6789 1.179138,0.6789 0.723562,0 1.00048,-0.47344 0.285852,-0.47344 0.303718,-1.84017 z"
       style="font-weight:bold;font-size:18.2945px;line-height:1.25;font-family:'Roboto Condensed';-inkscape-font-specification:'Roboto Condensed, Bold';letter-spacing:0px;word-spacing:0px;fill:#20619f;stroke-width:0.457363"
       id="path34546" />
    <path
       d="m 35.194325,104.15124 h -1.304198 v 4.75229 H 31.263866 V 95.89728 h 4.189512 q 1.974162,0 3.046105,1.027279 1.080877,1.018346 1.080877,2.90318 0,2.590531 -1.884834,3.626741 l 2.277879,5.32399 v 0.12506 h -2.822784 z m -1.304198,-2.18855 h 1.491788 q 0.786091,0 1.179137,-0.5181 0.393046,-0.52704 0.393046,-1.40246 0,-1.956299 -1.527519,-1.956299 h -1.536452 z"
       style="font-weight:bold;font-size:18.2945px;line-height:1.25;font-family:'Roboto Condensed';-inkscape-font-specification:'Roboto Condensed, Bold';letter-spacing:0px;word-spacing:0px;fill:#bf0000;fill-opacity:1;stroke-width:0.457363"
       id="path34548" />
    <path
       d="m 49.361845,98.085831 h -3.21583 V 108.90353 H 43.51082 V 98.085831 H 40.348588 V 95.89728 h 9.013257 z"
       style="font-weight:bold;font-size:18.2945px;line-height:1.25;font-family:'Roboto Condensed';-inkscape-font-specification:'Roboto Condensed, Bold';letter-spacing:0px;word-spacing:0px;fill:#bf0000;fill-opacity:1;stroke-width:0.457363"
       id="path34550" />
    <path
       d="m 59.438111,104.57109 q -0.09826,2.22428 -1.250601,3.36769 -1.152339,1.1434 -3.251562,1.1434 -2.206416,0 -3.385554,-1.44712 -1.170205,-1.45606 -1.170205,-4.14485 v -2.18855 q 0,-2.679857 1.214869,-4.126981 1.214869,-1.456056 3.376622,-1.456056 2.126021,0 3.224763,1.18807 1.107675,1.188071 1.259533,3.412357 h -2.635194 q -0.03573,-1.375664 -0.428777,-1.89377 -0.384113,-0.527039 -1.420325,-0.527039 -1.054078,0 -1.491788,0.741427 -0.43771,0.732495 -0.464509,2.420802 v 2.45654 q 0,1.93843 0.428778,2.66199 0.43771,0.72357 1.491787,0.72357 1.036212,0 1.429258,-0.50024 0.393046,-0.50918 0.446643,-1.83124 z"
       style="font-weight:bold;font-size:18.2945px;line-height:1.25;font-family:'Roboto Condensed';-inkscape-font-specification:'Roboto Condensed, Bold';letter-spacing:0px;word-spacing:0px;fill:#bf0000;fill-opacity:1;stroke-width:0.457363"
       id="path34552" />
  </g>
  <g
     id="g38798"
     transform="matrix(0.36587639,0,0,0.36587639,34.313619,18.600956)">
    <path
       d="m 17.686008,121.21498 v 4.57363 h -2.626261 v -13.00625 h 4.430699 q 1.929498,0 3.072904,1.197 1.152339,1.19701 1.152339,3.10864 0,1.91163 -1.134473,3.01931 -1.134473,1.10767 -3.144367,1.10767 z m 0,-2.18855 h 1.804438 q 0.75036,0 1.161272,-0.49131 0.410912,-0.4913 0.410912,-1.42926 0,-0.97368 -0.419845,-1.54538 -0.419844,-0.58064 -1.125541,-0.58957 h -1.831236 z"
       style="font-weight:bold;font-size:18.2945px;line-height:1.25;font-family:'Roboto Condensed';-inkscape-font-specification:'Roboto Condensed, Bold';letter-spacing:0px;word-spacing:0px;fill:#009939;fill-opacity:1;stroke-width:0.457363"
       id="path34554" />
    <path
       d="m 29.129,125.96726 q -1.947364,0 -3.037173,-1.16127 -1.089809,-1.16127 -1.089809,-3.32302 v -0.76823 q 0,-2.28681 1.000481,-3.52848 1.00048,-1.24167 2.867448,-1.24167 1.822304,0 2.742389,1.17021 0.920084,1.16127 0.93795,3.44808 v 1.24167 h -5.029201 q 0.0536,1.07194 0.473442,1.57218 0.419844,0.49131 1.295265,0.49131 1.268466,0 2.117088,-0.86649 l 0.991548,1.52752 q -0.464509,0.64317 -1.348863,1.04515 -0.884353,0.39304 -1.920565,0.39304 z m -1.590049,-5.93142 h 2.528 v -0.23225 q -0.01787,-0.86649 -0.285852,-1.31313 -0.267986,-0.44664 -0.929017,-0.44664 -0.661032,0 -0.96475,0.47344 -0.294784,0.47344 -0.348381,1.51858 z"
       style="font-weight:bold;font-size:18.2945px;line-height:1.25;font-family:'Roboto Condensed';-inkscape-font-specification:'Roboto Condensed, Bold';letter-spacing:0px;word-spacing:0px;fill:#009939;fill-opacity:1;stroke-width:0.457363"
       id="path34556" />
    <path
       d="m 38.749692,118.56192 -0.839689,-0.0715 q -1.036212,0 -1.40246,0.91115 v 6.387 h -2.536932 v -9.66536 h 2.385074 l 0.07146,1.04514 q 0.598501,-1.2238 1.652579,-1.2238 0.428777,0 0.696763,0.11613 z"
       style="font-weight:bold;font-size:18.2945px;line-height:1.25;font-family:'Roboto Condensed';-inkscape-font-specification:'Roboto Condensed, Bold';letter-spacing:0px;word-spacing:0px;fill:#009939;fill-opacity:1;stroke-width:0.457363"
       id="path34558" />
    <path
       d="m 40.804252,125.78861 v -7.76266 h -1.170205 v -1.9027 h 1.170205 v -0.86649 q 0.0089,-1.59898 0.839688,-2.48333 0.839689,-0.89329 2.313612,-0.89329 0.446643,0 1.143406,0.17866 l -0.01787,2.01882 q -0.259053,-0.0804 -0.616367,-0.0804 -1.125541,0 -1.125541,1.33993 v 0.78609 h 1.509654 v 1.90271 H 43.34118 v 7.76266 z"
       style="font-weight:bold;font-size:18.2945px;line-height:1.25;font-family:'Roboto Condensed';-inkscape-font-specification:'Roboto Condensed, Bold';letter-spacing:0px;word-spacing:0px;fill:#009939;fill-opacity:1;stroke-width:0.457363"
       id="path34560" />
  </g>
</svg>
