<?xml version="1.0" encoding="UTF-8" standalone="no"?>
<!-- Created with Inkscape (http://www.inkscape.org/) -->

<svg
   id="svg1307"
   width="90"
   height="90"
   version="1.0"
   sodipodi:docname="logo.svg"
   inkscape:version="1.1.2 (0a00cf5339, 2022-02-04)"
   inkscape:export-filename="/home/vittoriopalmisano/Downloads/logo.png"
   inkscape:export-xdpi="150"
   inkscape:export-ydpi="150"
   xmlns:inkscape="http://www.inkscape.org/namespaces/inkscape"
   xmlns:sodipodi="http://sodipodi.sourceforge.net/DTD/sodipodi-0.dtd"
   xmlns="http://www.w3.org/2000/svg"
   xmlns:svg="http://www.w3.org/2000/svg"
   xmlns:rdf="http://www.w3.org/1999/02/22-rdf-syntax-ns#"
   xmlns:cc="http://creativecommons.org/ns#"
   xmlns:dc="http://purl.org/dc/elements/1.1/">
  <defs
     id="defs12" />
  <sodipodi:namedview
     pagecolor="#ffffff"
     bordercolor="#666666"
     borderopacity="1"
     objecttolerance="10"
     gridtolerance="10"
     guidetolerance="10"
     inkscape:pageopacity="0"
     inkscape:pageshadow="2"
     inkscape:window-width="1840"
     inkscape:window-height="1139"
     id="namedview10"
     showgrid="false"
     inkscape:zoom="2.4583334"
     inkscape:cx="27.661016"
     inkscape:cy="68.542371"
     inkscape:window-x="0"
     inkscape:window-y="0"
     inkscape:window-maximized="1"
     inkscape:current-layer="svg1307"
     inkscape:pagecheckerboard="0"
     width="90px" />
  <metadata
     id="metadata1312">
    <rdf:RDF>
      <cc:Work
         rdf:about="">
        <dc:format>image/svg+xml</dc:format>
        <dc:type
           rdf:resource="http://purl.org/dc/dcmitype/StillImage" />
      </cc:Work>
    </rdf:RDF>
  </metadata>
  <g
     id="g4671"
     transform="matrix(2.142698,0,0,2.1430192,-5.6859953,-7.1941898)">
    <path
       id="path29274"
       d="m 16.585616,5.4984646 c 0.642377,0.5677977 1.284754,1.1355953 1.927131,1.703393 0.0042,3.5060404 -0.07307,7.0115854 -0.06804,10.5176314 -4.685986,5.220337 -9.8028778,10.227232 -13.1137619,16.490011 -1.6759411,3.407705 0.4926207,8.031053 4.2746628,8.735753 2.8548261,0.483676 5.7715841,0.189016 8.6570321,0.270348 5.933637,-0.01759 11.868757,0.03581 17.801434,-0.02784 2.865716,0.01339 5.56788,-1.946969 6.271007,-4.745172 0.891032,-3.010998 -1.122452,-5.744231 -2.55716,-8.199166 -2.792002,-4.515503 -6.256943,-8.557961 -9.765331,-12.523938 -0.0043,-3.506041 0.07235,-7.011591 0.06804,-10.5176314 0.642377,-0.5677977 1.284753,-1.1355953 1.92713,-1.703393 -5.140436,0 -10.283101,0 -15.422144,0 z"
       style="fill:none;fill-rule:evenodd;stroke:#20619f;stroke-width:4.28286;stroke-linecap:round;stroke-linejoin:round;stroke-opacity:1"
       inkscape:connector-curvature="0" />
    <g
       transform="matrix(0.08017919,0,0,0.08017919,13.737063,20.719524)"
       id="g4551">
      <path
         style="fill:#ff6600"
         inkscape:connector-curvature="0"
         d="m 142.07658,191.08681 c 1.91505,41.9458 -49.064806,72.30614 -85.041215,50.64091 -37.407927,-18.19318 -40.239996,-76.69112 -4.748473,-98.39697 36.521549,-26.24579 91.117038,2.74144 89.789688,47.75606 z"
         id="path4529" />
      <path
         style="fill:#ffcc00"
         inkscape:connector-curvature="0"
         d="m 255.9797,110.45857 c 1.91339,41.94426 -49.06528,72.30711 -85.04121,50.64006 -37.4082,-18.19477 -40.23909,-76.69118 -4.74847,-98.399 36.52292,-26.25019 91.11701,2.74468 89.78968,47.75894 z"
         id="path4531" />
      <path
         style="fill:#0089cc"
         inkscape:connector-curvature="0"
         d="m 115.2005,109.18068 c 1.91338,41.94341 -49.06564,72.30678 -85.040716,50.64005 -37.408275,-18.19562 -40.23951,-76.69078 -4.748148,-98.399 36.521215,-26.25055 91.116774,2.7465 89.788864,47.75895 z"
         id="path4533" />
      <path
         style="fill:#009939"
         inkscape:connector-curvature="0"
         d="m 230.38575,191.08681 c 1.91486,41.94686 -49.06887,72.30526 -85.04494,50.64091 -37.40799,-18.19403 -40.24042,-76.69072 -4.74815,-98.39697 36.51991,-26.24554 91.12114,2.74158 89.79309,47.75606 z"
         id="path4535" />
      <path
         style="fill:#bf0000"
         inkscape:connector-curvature="0"
         d="M 185.592,57.984319 C 187.50544,99.929634 136.52466,130.28994 100.54844,108.62523 63.13887,90.43244 60.306105,31.933627 95.799948,10.22826 132.32074,-16.01753 186.91815,12.97091 185.592,57.984319 Z"
         id="path4537" />
      <path
         style="fill:#fc0007"
         inkscape:connector-curvature="0"
         d="m 140.79867,110.45858 c 19.44346,9.89235 57.35016,-42.08737 39.89978,-54.77109 -23.31165,7.21271 -40.26539,30.327459 -39.89978,54.77109 z"
         id="path4539" />
      <path
         style="fill:#1cd306"
         inkscape:connector-curvature="0"
         d="m 148.39686,138.97563 c 13.82573,25.59824 48.35463,36.60279 74.39028,23.59498 -14.08239,-25.70474 -48.06194,-36.55972 -74.39028,-23.59498 z"
         id="path4541" />
      <path
         style="fill:#0f7504"
         inkscape:connector-curvature="0"
         d="m 115.2005,191.08681 c -1.93021,17.25048 15.38025,53.32518 23.29947,20.00023 8.05341,-15.62805 2.09227,-54.98223 -12.84241,-53.06648 -6.78992,9.59437 -10.49381,21.31204 -10.45706,33.06625 z"
         id="path4543" />
      <path
         style="fill:#0c5e87"
         inkscape:connector-curvature="0"
         d="m 34.806984,162.05683 c 25.713208,11.81384 58.760411,0.80967 72.486306,-23.84829 -25.838054,-11.774 -58.640566,-0.86753 -72.486306,23.84829 z"
         id="path4545" />
      <path
         style="fill:#6b0001"
         inkscape:connector-curvature="0"
         d="M 70.654563,53.12559 C 64.366422,78.72168 96.417598,118.91808 115.20176,109.1811 115.62562,83.012942 96.200636,58.68673 70.654563,53.12559 Z"
         id="path4547" />
      <path
         style="fill:#ffffff"
         inkscape:connector-curvature="0"
         d="m 76.030455,183.96061 c -16.374197,3.73381 -26.715467,-11.00909 -23.430342,-26.23189 0.704722,-25.06293 -1.443654,-50.41234 1.134841,-75.28712 8.865148,-14.18413 27.44687,-7.04152 41.436932,-8.78935 28.272504,0 56.545014,0 84.817514,0 19.22995,1.72314 13.56278,23.35847 14.41705,36.60736 -0.6874,21.60736 1.41989,43.49521 -1.13418,64.91522 -8.8651,14.18016 -27.44494,7.03764 -41.43337,8.78578 -15.69052,-1.69407 -28.1742,10.43909 -42.26288,15.65179 -15.095358,7.39994 -30.190713,14.79988 -45.286067,22.19983 3.913501,-12.61721 7.827001,-25.23442 11.740502,-37.85162 z"
         id="path4549" />
    </g>
  </g>
</svg>
